<mxfile host="app.diagrams.net" modified="2021-12-13T03:05:52.927Z" agent="5.0 (Windows NT 10.0; Win64; x64) AppleWebKit/537.36 (KHTML, like Gecko) Chrome/96.0.4664.45 Safari/537.36" etag="7hwt8wHbnwVz2puxR3Pa" version="15.9.1" type="github">
  <diagram id="kgpKYQtTHZ0yAKxKKP6v" name="Page-1">
    <mxGraphModel dx="981" dy="526" grid="1" gridSize="10" guides="1" tooltips="1" connect="1" arrows="1" fold="1" page="1" pageScale="1" pageWidth="850" pageHeight="1100" math="0" shadow="0">
      <root>
        <mxCell id="0" />
        <mxCell id="1" parent="0" />
        <mxCell id="3nuBFxr9cyL0pnOWT2aG-1" value="货架" style="shape=umlLifeline;perimeter=lifelinePerimeter;container=1;collapsible=0;recursiveResize=0;rounded=0;shadow=0;strokeWidth=1;" parent="1" vertex="1">
          <mxGeometry x="20" y="80" width="100" height="440" as="geometry" />
        </mxCell>
        <mxCell id="3nuBFxr9cyL0pnOWT2aG-2" value="" style="points=[];perimeter=orthogonalPerimeter;rounded=0;shadow=0;strokeWidth=1;" parent="3nuBFxr9cyL0pnOWT2aG-1" vertex="1">
          <mxGeometry x="45" y="70" width="10" height="280" as="geometry" />
        </mxCell>
        <mxCell id="3nuBFxr9cyL0pnOWT2aG-4" value="" style="points=[];perimeter=orthogonalPerimeter;rounded=0;shadow=0;strokeWidth=1;" parent="3nuBFxr9cyL0pnOWT2aG-1" vertex="1">
          <mxGeometry x="50" y="120" width="10" height="200" as="geometry" />
        </mxCell>
        <mxCell id="3nuBFxr9cyL0pnOWT2aG-5" value="激光魔盒" style="shape=umlLifeline;perimeter=lifelinePerimeter;container=1;collapsible=0;recursiveResize=0;rounded=0;shadow=0;strokeWidth=1;" parent="1" vertex="1">
          <mxGeometry x="400" y="80" width="100" height="440" as="geometry" />
        </mxCell>
        <mxCell id="3nuBFxr9cyL0pnOWT2aG-6" value="" style="points=[];perimeter=orthogonalPerimeter;rounded=0;shadow=0;strokeWidth=1;" parent="3nuBFxr9cyL0pnOWT2aG-5" vertex="1">
          <mxGeometry x="45" y="80" width="10" height="270" as="geometry" />
        </mxCell>
        <mxCell id="1M-2WVXSD60EshlJRFmK-12" value="" style="html=1;points=[];perimeter=orthogonalPerimeter;" vertex="1" parent="3nuBFxr9cyL0pnOWT2aG-5">
          <mxGeometry x="40" y="150" width="10" height="170" as="geometry" />
        </mxCell>
        <mxCell id="3nuBFxr9cyL0pnOWT2aG-9" value="发送第一张板材信息" style="verticalAlign=bottom;endArrow=block;entryX=1;entryY=0;shadow=0;strokeWidth=1;" parent="1" source="3nuBFxr9cyL0pnOWT2aG-6" target="3nuBFxr9cyL0pnOWT2aG-4" edge="1">
          <mxGeometry relative="1" as="geometry">
            <mxPoint x="240" y="200" as="sourcePoint" />
          </mxGeometry>
        </mxCell>
        <mxCell id="3nuBFxr9cyL0pnOWT2aG-10" value="" style="verticalAlign=bottom;endArrow=open;dashed=1;endSize=8;shadow=0;strokeWidth=1;exitX=1.107;exitY=0.156;exitDx=0;exitDy=0;exitPerimeter=0;" parent="1" edge="1">
          <mxGeometry relative="1" as="geometry">
            <mxPoint x="230" y="217" as="targetPoint" />
            <mxPoint x="81.07000000000016" y="217.20000000000005" as="sourcePoint" />
          </mxGeometry>
        </mxCell>
        <mxCell id="1M-2WVXSD60EshlJRFmK-30" value="上料交换台" style="edgeLabel;html=1;align=center;verticalAlign=middle;resizable=0;points=[];" vertex="1" connectable="0" parent="3nuBFxr9cyL0pnOWT2aG-10">
          <mxGeometry x="-0.1479" y="1" relative="1" as="geometry">
            <mxPoint as="offset" />
          </mxGeometry>
        </mxCell>
        <mxCell id="3nuBFxr9cyL0pnOWT2aG-3" value="dispatch" style="verticalAlign=bottom;startArrow=oval;endArrow=block;startSize=8;shadow=0;strokeWidth=1;" parent="1" edge="1">
          <mxGeometry x="1" y="285" relative="1" as="geometry">
            <mxPoint x="580" y="160" as="sourcePoint" />
            <mxPoint x="450" y="160" as="targetPoint" />
            <mxPoint x="285" y="285" as="offset" />
          </mxGeometry>
        </mxCell>
        <mxCell id="1M-2WVXSD60EshlJRFmK-6" value="上传图纸" style="edgeLabel;html=1;align=center;verticalAlign=middle;resizable=0;points=[];" vertex="1" connectable="0" parent="3nuBFxr9cyL0pnOWT2aG-3">
          <mxGeometry x="0.1931" y="-2" relative="1" as="geometry">
            <mxPoint x="17" y="2" as="offset" />
          </mxGeometry>
        </mxCell>
        <mxCell id="1M-2WVXSD60EshlJRFmK-1" value="操作员" style="shape=umlActor;verticalLabelPosition=bottom;verticalAlign=top;html=1;outlineConnect=0;" vertex="1" parent="1">
          <mxGeometry x="570" y="80" width="30" height="60" as="geometry" />
        </mxCell>
        <mxCell id="1M-2WVXSD60EshlJRFmK-7" value="" style="endArrow=none;dashed=1;html=1;dashPattern=1 3;strokeWidth=2;rounded=0;" edge="1" parent="1">
          <mxGeometry width="50" height="50" relative="1" as="geometry">
            <mxPoint x="580" y="520" as="sourcePoint" />
            <mxPoint x="580" y="160" as="targetPoint" />
          </mxGeometry>
        </mxCell>
        <mxCell id="1M-2WVXSD60EshlJRFmK-8" value="" style="endArrow=classic;html=1;rounded=0;" edge="1" parent="1" target="3nuBFxr9cyL0pnOWT2aG-6">
          <mxGeometry width="50" height="50" relative="1" as="geometry">
            <mxPoint x="580" y="200" as="sourcePoint" />
            <mxPoint x="460" y="200" as="targetPoint" />
          </mxGeometry>
        </mxCell>
        <mxCell id="1M-2WVXSD60EshlJRFmK-9" value="开启自动加工" style="edgeLabel;html=1;align=center;verticalAlign=middle;resizable=0;points=[];" vertex="1" connectable="0" parent="1M-2WVXSD60EshlJRFmK-8">
          <mxGeometry x="0.2298" relative="1" as="geometry">
            <mxPoint x="17" as="offset" />
          </mxGeometry>
        </mxCell>
        <mxCell id="1M-2WVXSD60EshlJRFmK-10" value="" style="verticalAlign=bottom;endArrow=open;dashed=1;endSize=8;shadow=0;strokeWidth=1;exitX=1.107;exitY=0.829;exitDx=0;exitDy=0;exitPerimeter=0;entryX=0.48;entryY=0.648;entryDx=0;entryDy=0;entryPerimeter=0;" edge="1" parent="1">
          <mxGeometry relative="1" as="geometry">
            <mxPoint x="228" y="303.12" as="targetPoint" />
            <mxPoint x="81.07000000000016" y="303.80000000000007" as="sourcePoint" />
          </mxGeometry>
        </mxCell>
        <mxCell id="1M-2WVXSD60EshlJRFmK-32" value="交换台下料" style="edgeLabel;html=1;align=center;verticalAlign=middle;resizable=0;points=[];" vertex="1" connectable="0" parent="1M-2WVXSD60EshlJRFmK-10">
          <mxGeometry x="-0.2772" relative="1" as="geometry">
            <mxPoint x="11" as="offset" />
          </mxGeometry>
        </mxCell>
        <mxCell id="1M-2WVXSD60EshlJRFmK-13" value="激光切割机" style="shape=umlLifeline;perimeter=lifelinePerimeter;container=1;collapsible=0;recursiveResize=0;rounded=0;shadow=0;strokeWidth=1;fillColor=#d5e8d4;strokeColor=#82b366;" vertex="1" parent="1">
          <mxGeometry x="180" y="80" width="100" height="440" as="geometry" />
        </mxCell>
        <mxCell id="1M-2WVXSD60EshlJRFmK-22" value="" style="html=1;points=[];perimeter=orthogonalPerimeter;fillColor=#d5e8d4;strokeColor=#82b366;" vertex="1" parent="1M-2WVXSD60EshlJRFmK-13">
          <mxGeometry x="45" y="141" width="10" height="69" as="geometry" />
        </mxCell>
        <mxCell id="1M-2WVXSD60EshlJRFmK-26" value="" style="html=1;points=[];perimeter=orthogonalPerimeter;fillColor=#d5e8d4;strokeColor=#82b366;" vertex="1" parent="1M-2WVXSD60EshlJRFmK-13">
          <mxGeometry x="45" y="225" width="10" height="75" as="geometry" />
        </mxCell>
        <mxCell id="1M-2WVXSD60EshlJRFmK-42" value="" style="html=1;points=[];perimeter=orthogonalPerimeter;fillColor=#d5e8d4;strokeColor=#82b366;" vertex="1" parent="1M-2WVXSD60EshlJRFmK-13">
          <mxGeometry x="45" y="320" width="10" height="20" as="geometry" />
        </mxCell>
        <mxCell id="1M-2WVXSD60EshlJRFmK-19" value="" style="endArrow=classic;html=1;rounded=0;entryX=1.245;entryY=0.394;entryDx=0;entryDy=0;entryPerimeter=0;" edge="1" parent="1">
          <mxGeometry width="50" height="50" relative="1" as="geometry">
            <mxPoint x="437" y="245" as="sourcePoint" />
            <mxPoint x="80.45000000000005" y="244.80000000000007" as="targetPoint" />
          </mxGeometry>
        </mxCell>
        <mxCell id="1M-2WVXSD60EshlJRFmK-20" value="发送下一张板材信息" style="edgeLabel;html=1;align=center;verticalAlign=middle;resizable=0;points=[];" vertex="1" connectable="0" parent="1M-2WVXSD60EshlJRFmK-19">
          <mxGeometry x="-0.5249" relative="1" as="geometry">
            <mxPoint as="offset" />
          </mxGeometry>
        </mxCell>
        <mxCell id="1M-2WVXSD60EshlJRFmK-17" value="交换工作台 开始切割" style="text;html=1;align=center;verticalAlign=middle;resizable=0;points=[];autosize=1;strokeColor=none;fillColor=none;" vertex="1" parent="1">
          <mxGeometry x="227" y="221" width="130" height="20" as="geometry" />
        </mxCell>
        <mxCell id="1M-2WVXSD60EshlJRFmK-23" value="" style="verticalAlign=bottom;endArrow=open;dashed=1;endSize=8;shadow=0;strokeWidth=1;exitX=1;exitY=0.365;exitDx=0;exitDy=0;exitPerimeter=0;" edge="1" parent="1">
          <mxGeometry relative="1" as="geometry">
            <mxPoint x="220" y="257" as="targetPoint" />
            <mxPoint x="80" y="257" as="sourcePoint" />
          </mxGeometry>
        </mxCell>
        <mxCell id="1M-2WVXSD60EshlJRFmK-31" value="上料交换台" style="edgeLabel;html=1;align=center;verticalAlign=middle;resizable=0;points=[];" vertex="1" connectable="0" parent="1M-2WVXSD60EshlJRFmK-23">
          <mxGeometry x="-0.1101" y="1" relative="1" as="geometry">
            <mxPoint as="offset" />
          </mxGeometry>
        </mxCell>
        <mxCell id="1M-2WVXSD60EshlJRFmK-24" value="" style="endArrow=classic;html=1;rounded=0;exitX=-0.169;exitY=0.417;exitDx=0;exitDy=0;exitPerimeter=0;" edge="1" parent="1">
          <mxGeometry width="50" height="50" relative="1" as="geometry">
            <mxPoint x="438.30999999999995" y="290.8900000000001" as="sourcePoint" />
            <mxPoint x="80" y="290" as="targetPoint" />
          </mxGeometry>
        </mxCell>
        <mxCell id="1M-2WVXSD60EshlJRFmK-25" value="通知加工结束" style="edgeLabel;html=1;align=center;verticalAlign=middle;resizable=0;points=[];" vertex="1" connectable="0" parent="1M-2WVXSD60EshlJRFmK-24">
          <mxGeometry x="-0.3814" relative="1" as="geometry">
            <mxPoint as="offset" />
          </mxGeometry>
        </mxCell>
        <mxCell id="1M-2WVXSD60EshlJRFmK-27" value="交换工作台 开始切割" style="text;html=1;align=center;verticalAlign=middle;resizable=0;points=[];autosize=1;strokeColor=none;fillColor=none;" vertex="1" parent="1">
          <mxGeometry x="229" y="313" width="130" height="20" as="geometry" />
        </mxCell>
        <mxCell id="1M-2WVXSD60EshlJRFmK-28" value="" style="endArrow=classic;html=1;rounded=0;" edge="1" parent="1">
          <mxGeometry width="50" height="50" relative="1" as="geometry">
            <mxPoint x="440" y="343.9999999999999" as="sourcePoint" />
            <mxPoint x="80" y="344" as="targetPoint" />
          </mxGeometry>
        </mxCell>
        <mxCell id="1M-2WVXSD60EshlJRFmK-29" value="发送下一张板材信息" style="edgeLabel;html=1;align=center;verticalAlign=middle;resizable=0;points=[];" vertex="1" connectable="0" parent="1M-2WVXSD60EshlJRFmK-28">
          <mxGeometry x="-0.5249" relative="1" as="geometry">
            <mxPoint as="offset" />
          </mxGeometry>
        </mxCell>
        <mxCell id="1M-2WVXSD60EshlJRFmK-33" value="" style="verticalAlign=bottom;endArrow=open;dashed=1;endSize=8;shadow=0;strokeWidth=1;exitX=1;exitY=0.365;exitDx=0;exitDy=0;exitPerimeter=0;" edge="1" parent="1">
          <mxGeometry relative="1" as="geometry">
            <mxPoint x="227" y="355" as="targetPoint" />
            <mxPoint x="82" y="355" as="sourcePoint" />
          </mxGeometry>
        </mxCell>
        <mxCell id="1M-2WVXSD60EshlJRFmK-34" value="上料交换台" style="edgeLabel;html=1;align=center;verticalAlign=middle;resizable=0;points=[];" vertex="1" connectable="0" parent="1M-2WVXSD60EshlJRFmK-33">
          <mxGeometry x="-0.1101" y="1" relative="1" as="geometry">
            <mxPoint as="offset" />
          </mxGeometry>
        </mxCell>
        <mxCell id="1M-2WVXSD60EshlJRFmK-35" value="" style="endArrow=classic;html=1;rounded=0;exitX=-0.169;exitY=0.417;exitDx=0;exitDy=0;exitPerimeter=0;" edge="1" parent="1">
          <mxGeometry width="50" height="50" relative="1" as="geometry">
            <mxPoint x="438.30999999999995" y="380.8900000000001" as="sourcePoint" />
            <mxPoint x="80" y="380" as="targetPoint" />
          </mxGeometry>
        </mxCell>
        <mxCell id="1M-2WVXSD60EshlJRFmK-36" value="通知加工结束" style="edgeLabel;html=1;align=center;verticalAlign=middle;resizable=0;points=[];" vertex="1" connectable="0" parent="1M-2WVXSD60EshlJRFmK-35">
          <mxGeometry x="-0.3814" relative="1" as="geometry">
            <mxPoint as="offset" />
          </mxGeometry>
        </mxCell>
        <mxCell id="1M-2WVXSD60EshlJRFmK-38" value="循环往复，直到最后一个任务加工结束" style="text;strokeColor=none;fillColor=none;align=left;verticalAlign=middle;spacingLeft=4;spacingRight=4;overflow=hidden;points=[[0,0.5],[1,0.5]];portConstraint=eastwest;rotatable=0;" vertex="1" parent="1">
          <mxGeometry x="170" y="414" width="230" height="36" as="geometry" />
        </mxCell>
        <mxCell id="1M-2WVXSD60EshlJRFmK-39" value="" style="verticalAlign=bottom;endArrow=open;dashed=1;endSize=8;shadow=0;strokeWidth=1;exitX=1.107;exitY=0.829;exitDx=0;exitDy=0;exitPerimeter=0;entryX=0.48;entryY=0.648;entryDx=0;entryDy=0;entryPerimeter=0;" edge="1" parent="1">
          <mxGeometry relative="1" as="geometry">
            <mxPoint x="228" y="394.12" as="targetPoint" />
            <mxPoint x="81.07000000000016" y="394.80000000000007" as="sourcePoint" />
          </mxGeometry>
        </mxCell>
        <mxCell id="1M-2WVXSD60EshlJRFmK-40" value="交换台下料" style="edgeLabel;html=1;align=center;verticalAlign=middle;resizable=0;points=[];" vertex="1" connectable="0" parent="1M-2WVXSD60EshlJRFmK-39">
          <mxGeometry x="-0.2772" relative="1" as="geometry">
            <mxPoint x="11" as="offset" />
          </mxGeometry>
        </mxCell>
      </root>
    </mxGraphModel>
  </diagram>
</mxfile>
